<?xml version="1.0" encoding="utf-8"?>
<!-- Generator: Adobe Illustrator 24.3.0, SVG Export Plug-In . SVG Version: 6.00 Build 0)  -->
<svg version="1.1" id="Layer_1" xmlns="http://www.w3.org/2000/svg" xmlns:xlink="http://www.w3.org/1999/xlink" x="0px" y="0px"
	 viewBox="0 0 30 26" style="enable-background:new 0 0 30 26;" xml:space="preserve">
<style type="text/css">
	.st0{fill-rule:evenodd;clip-rule:evenodd;}
</style>
<g id="Clip-2">
</g>
<g>
	<path class="st0" d="M24,13.5c0-2.2,0.4-3.9,1.1-5.2c0.8-1.3,2.2-2.4,4.4-3.4L26.8,0c-3.3,1.4-5.6,3.3-7,5.6c-1.3,2.3-2,5.3-2,8.9
		v11.4H30V13.5H24z"/>
	<path class="st0" d="M7.1,8.3c0.8-1.3,2.2-2.4,4.4-3.4L8.8,0C5.5,1.4,3.2,3.3,1.9,5.5C0.6,7.8,0,10.8,0,14.5v11.4h12.1V13.5H6
		C6,11.3,6.4,9.6,7.1,8.3z"/>
</g>
</svg>
